<?xml version="1.0" standalone="no"?><!DOCTYPE svg PUBLIC "-//W3C//DTD SVG 1.1//EN" "http://www.w3.org/Graphics/SVG/1.1/DTD/svg11.dtd"><svg t="1643357547336" class="icon" viewBox="0 0 1024 1024" version="1.1" xmlns="http://www.w3.org/2000/svg" p-id="2485" xmlns:xlink="http://www.w3.org/1999/xlink" width="200" height="200"><defs><style type="text/css"></style></defs><path d="M270.768 567.808m-160 0a160 160 0 1 0 320 0 160 160 0 1 0-320 0Z" fill="#95EAFF" p-id="2486"></path><path d="M816.464 569.52m-160 0a160 160 0 1 0 320 0 160 160 0 1 0-320 0Z" fill="#95EAFF" p-id="2487"></path><path d="M342.224 425.424c-78.64-57.136-188.704-39.696-245.84 38.944S56.688 653.072 135.328 710.208s188.704 39.696 245.84-38.944 39.696-188.704-38.944-245.84zM154.128 684.304a144 144 0 0 1-31.856-201.136 144 144 0 0 1 201.136-31.856c64.336 46.752 78.608 136.8 31.856 201.136a144 144 0 0 1-201.136 31.856z" fill="#0F13AE" p-id="2488"></path><path d="M176.96 655.344a96.8 96.8 0 0 0 105.264 5.568 16 16 0 0 0-15.968-27.744 64.816 64.816 0 0 1-96.64-47.488 16 16 0 0 0-31.712 4.288 96.672 96.672 0 0 0 39.056 65.376zM825.568 629.456a64.816 64.816 0 0 1-70.496 3.728 16 16 0 1 0-15.968 27.744 96.832 96.832 0 0 0 144.304-70.928 16 16 0 1 0-31.712-4.288 64.56 64.56 0 0 1-26.128 43.744z" fill="#0F13AE" p-id="2489"></path><path d="M160 528m-16 0a16 16 0 1 0 32 0 16 16 0 1 0-32 0Z" fill="#0F13AE" p-id="2490"></path><path d="M704 608m-16 0a16 16 0 1 0 32 0 16 16 0 1 0-32 0Z" fill="#0F13AE" p-id="2491"></path><path d="M607.776 249.936a16 16 0 0 0-31.136-7.424l-62.72 263.168a16 16 0 0 0 31.136 7.424l62.72-263.168z" fill="#0F13AE" p-id="2492"></path><path d="M665.472 257.184a15.984 15.984 0 1 0 1.376-31.968l-137.6-5.984a15.984 15.984 0 1 0-1.376 31.968l137.6 5.984zM887.92 427.12c-78.64-57.136-188.704-39.696-245.84 38.944s-39.696 188.704 38.944 245.84 188.704 39.696 245.84-38.944 39.696-188.704-38.944-245.84zM699.824 686.016a144 144 0 0 1-31.856-201.136 144 144 0 0 1 201.136-31.856 144 144 0 1 1-169.28 232.992z" fill="#0F13AE" p-id="2493"></path><path d="M823.776 505.344L598.24 295.056a15.968 15.968 0 0 0-11.936-4.256l-270.384 17.504 22.624-87.904a16.016 16.016 0 0 0-11.328-19.44 363.2 363.2 0 0 0-25.12-5.328c-24.64-4.288-49.712-6.288-73.424-4.736-37.248 2.448-67.264 13.472-86.688 35.968-30.912 35.824-24.336 70.752 4.224 97.424a105.696 105.696 0 0 0 22.832 16.432 16 16 0 0 0 14.576-28.496 81.008 81.008 0 0 1-15.568-11.328c-17.136-16-20.128-31.936-1.84-53.136 12.8-14.832 35.04-23.008 64.56-24.944 20.848-1.376 43.52 0.448 65.856 4.336 2.368 0.416 4.608 0.848 6.816 1.28l-22.128 86.032a16.064 16.064 0 0 0-4.144 16.096l-58.048 225.648a16 16 0 1 0 30.992 7.984l53.28-207.12 203.392 180.96c3.056 2.72 7.04 4.16 11.12 4.032l295.472-9.024c14.256-0.448 20.848-17.952 10.4-27.696zM331.6 339.344l249.872-16.176L773.52 502.24l-250.256 7.648-191.664-170.544z" fill="#49A3FE" p-id="2494"></path><path d="M528 512m-48 0a48 48 0 1 0 96 0 48 48 0 1 0-96 0Z" fill="#0F13AE" p-id="2495"></path><path d="M896 816a16 16 0 0 0-16-16H560a16 16 0 0 0 0 32h320a16 16 0 0 0 16-16zM944 864H768a16 16 0 0 0 0 32h176a16 16 0 0 0 0-32z" fill="#49A3FE" p-id="2496"></path><path d="M944 816m-16 0a16 16 0 1 0 32 0 16 16 0 1 0-32 0Z" fill="#0F13AE" p-id="2497"></path></svg>